<?xml version="1.0" standalone="no"?>
<!DOCTYPE svg PUBLIC "-//W3C//DTD SVG 20010904//EN"
 "http://www.w3.org/TR/2001/REC-SVG-20010904/DTD/svg10.dtd">
<svg version="1.0" xmlns="http://www.w3.org/2000/svg"
 width="666.000000pt" height="666.000000pt" viewBox="0 0 666.000000 666.000000"
 preserveAspectRatio="xMidYMid meet">
<metadata>
Created by potrace 1.11, written by Peter Selinger 2001-2013
</metadata>
<g transform="translate(0.000000,666.000000) scale(0.100000,-0.100000)"
fill="#000000" stroke="none">
<path d="M2929 5043 c-1 -2 -2 -8 -3 -13 0 -6 -6 -14 -11 -18 -12 -9 -20 -66
-8 -59 5 3 9 -2 9 -11 1 -9 4 -25 9 -34 6 -15 1 -18 -31 -17 -47 2 -70 -3 -86
-19 -9 -9 -8 -12 3 -12 22 0 47 -31 45 -55 -4 -33 -17 -65 -27 -65 -5 0 -9 -7
-9 -15 0 -8 -4 -15 -9 -15 -8 0 -31 -46 -39 -80 -5 -20 -5 -61 1 -80 2 -8 7
-27 12 -42 4 -16 11 -28 15 -28 4 0 10 -8 12 -18 5 -19 70 -66 107 -77 l24 -7
-20 28 c-57 81 -42 159 44 240 42 40 64 90 52 121 -7 19 -5 23 12 23 12 0 23
-8 26 -20 3 -11 9 -20 13 -20 11 0 32 -59 33 -90 1 -40 -14 -80 -30 -80 -20 0
-11 -24 11 -28 10 -2 25 3 35 12 10 9 21 13 24 10 4 -4 9 1 13 10 3 9 12 16
19 16 31 0 28 -113 -4 -158 -26 -37 -26 -48 -1 -48 11 0 20 6 20 13 0 7 4 13
10 13 5 0 21 12 35 28 77 81 91 192 38 302 -17 36 -45 81 -62 100 -17 19 -36
41 -41 48 -6 7 -15 10 -20 7 -6 -3 -8 0 -5 7 3 7 -6 22 -20 32 -14 10 -25 25
-25 32 0 7 -9 15 -19 19 -11 3 -18 12 -15 19 3 7 -3 19 -12 27 -12 9 -15 10
-10 2 4 -7 2 -13 -3 -13 -6 0 -11 4 -11 8 0 7 -98 12 -101 5z m49 -12 c1 0 -2
-9 -7 -19 -7 -13 -6 -23 2 -31 9 -10 8 -11 -5 -6 -15 6 -28 25 -33 51 -2 9 27
12 43 5z m50 -4 c6 -5 18 -5 25 -2 6 4 5 0 -5 -7 -15 -13 -13 -15 13 -30 16
-10 29 -22 29 -28 0 -5 -9 -1 -21 11 -12 12 -29 19 -39 16 -12 -3 -17 0 -14 7
3 7 -2 13 -11 13 -19 0 -19 -11 1 -31 8 -9 11 -16 5 -16 -16 0 -31 34 -25 57
6 21 19 24 42 10z m-87 -57 c6 0 7 -5 3 -11 -8 -14 -24 8 -23 31 1 11 3 10 6
-2 2 -10 9 -18 14 -18z m107 -15 c-3 -3 -9 2 -12 12 -6 14 -5 15 5 6 7 -7 10
-15 7 -18z m-78 -5 c0 -5 -5 -10 -11 -10 -5 0 -7 5 -4 10 3 6 8 10 11 10 2 0
4 -4 4 -10z m97 -12 c-3 -8 -6 -5 -6 6 -1 11 2 17 5 13 3 -3 4 -12 1 -19z m18
-38 c3 -5 1 -10 -4 -10 -6 0 -11 5 -11 10 0 6 2 10 4 10 3 0 8 -4 11 -10z"/>
<path d="M2945 5021 c-3 -5 0 -13 6 -17 7 -4 9 -3 5 4 -3 5 0 13 6 15 9 4 10
6 1 6 -6 1 -14 -3 -18 -8z"/>
<path d="M3006 5022 c-3 -5 1 -9 9 -9 8 0 12 4 9 9 -3 4 -7 8 -9 8 -2 0 -6 -4
-9 -8z"/>
<path d="M5995 5000 c-3 -5 -10 -8 -15 -5 -5 3 -21 0 -37 -7 -15 -6 -32 -10
-36 -10 -4 1 -10 -5 -13 -13 -4 -8 -12 -15 -18 -15 -13 0 -68 -81 -74 -108 -7
-34 -8 -112 -1 -112 3 0 12 -27 18 -59 21 -105 102 -316 116 -303 5 4 5 -1 2
-10 -4 -10 -2 -18 2 -18 19 0 21 -34 4 -59 -29 -42 -36 -248 -9 -289 4 -7 6
-16 3 -18 -3 -3 -1 -20 4 -37 7 -24 5 -35 -8 -49 -20 -23 -29 -170 -16 -258
l8 -55 50 -1 c28 -1 55 -3 60 -4 6 -2 15 -4 20 -5 56 -13 76 -19 81 -26 3 -5
13 -9 23 -9 20 0 101 -73 123 -110 22 -38 16 -103 -14 -142 -24 -31 -249 -259
-384 -389 -57 -55 -123 -112 -178 -154 -15 -11 -33 -26 -41 -33 -13 -12 -15
-9 -15 16 0 23 20 50 103 135 56 59 120 127 141 152 22 25 43 45 48 45 12 0
47 33 43 40 -2 4 19 32 48 62 175 184 198 211 189 220 -6 6 -8 17 -5 24 3 8 0
14 -6 14 -6 0 -10 3 -9 8 9 29 -85 104 -130 104 -12 0 -24 3 -26 7 -5 7 -195
6 -246 -2 -111 -17 -227 -79 -373 -196 -221 -179 -316 -246 -419 -298 -118
-60 -175 -85 -203 -89 -11 -1 -27 -5 -35 -7 -8 -2 -28 -7 -45 -12 -16 -4 -34
-10 -40 -14 -5 -3 -17 -7 -25 -8 -65 -11 -88 -15 -110 -18 -14 -2 -25 -4 -25
-5 0 -3 -28 -8 -85 -14 -25 -3 -56 -8 -70 -10 -26 -6 -95 -15 -170 -23 -25 -3
-49 -8 -55 -12 -5 -5 -21 -5 -35 -1 -14 3 -32 3 -40 -1 -8 -4 -58 -18 -110
-30 -52 -12 -120 -33 -150 -48 -30 -14 -58 -26 -62 -27 -5 -1 -10 -3 -13 -4
-3 -1 -8 -3 -12 -4 -14 -3 -121 -74 -127 -85 -15 -23 -28 -10 -24 24 2 19 1
35 -3 35 -10 0 -10 -5 -7 253 1 103 5 187 8 187 3 0 5 55 5 123 1 133 13 307
30 417 3 19 6 52 6 73 1 20 4 39 8 41 4 3 6 23 4 45 -1 23 2 41 6 41 5 0 7 11
6 25 -2 13 3 44 10 67 7 24 13 46 14 51 0 4 1 8 2 10 1 3 9 53 12 84 2 15 8
28 15 31 7 2 12 12 12 23 0 10 5 19 10 19 6 0 10 6 9 13 -1 6 0 19 4 27 8 21
30 92 34 110 2 8 6 68 9 134 5 89 3 121 -7 126 -16 11 -39 1 -39 -16 0 -8 -4
-14 -10 -14 -5 0 -10 -5 -10 -12 0 -6 -30 -59 -66 -117 -37 -58 -74 -117 -82
-131 -12 -18 -17 -21 -20 -10 -2 8 -15 26 -28 40 -13 14 -35 39 -48 56 -22 27
-54 41 -57 25 -6 -27 -5 -51 3 -51 5 0 7 -4 4 -9 -4 -5 -2 -11 3 -13 9 -3 91
-145 91 -158 0 -13 41 -83 56 -95 9 -8 10 -23 2 -60 -33 -170 -39 -202 -39
-215 -1 -8 -7 -32 -15 -53 -8 -20 -14 -53 -14 -71 0 -18 -7 -51 -16 -72 -9
-22 -18 -50 -19 -64 -4 -39 -10 -57 -23 -72 -6 -8 -9 -17 -6 -20 3 -4 -3 -23
-14 -45 -11 -21 -21 -42 -22 -48 -1 -5 -7 -21 -13 -35 -5 -14 -11 -31 -13 -39
-1 -8 -7 -17 -12 -20 -4 -3 -17 -21 -27 -38 -21 -37 -34 -42 -36 -15 -1 9 -3
28 -4 42 -2 14 1 48 7 75 9 47 19 170 18 224 0 12 3 28 7 34 9 15 12 87 3 92
-5 3 -8 26 -9 52 -1 47 -16 113 -43 183 -17 45 -71 100 -100 101 -79 5 -94 4
-105 -4 -7 -5 -13 -6 -13 -2 0 4 -7 2 -15 -5 -8 -7 -15 -10 -15 -6 0 3 -8 -2
-19 -13 -10 -10 -22 -20 -27 -22 -13 -6 -44 -76 -44 -99 0 -10 -4 -21 -8 -24
-4 -2 -7 -23 -5 -45 1 -23 -1 -41 -5 -41 -4 0 -6 -15 -5 -32 6 -77 10 -105 15
-114 3 -5 11 -29 18 -54 13 -49 75 -160 116 -209 14 -17 22 -31 18 -31 -4 0 3
-12 17 -26 13 -14 23 -27 22 -30 -3 -8 10 -44 16 -44 4 0 8 -7 8 -15 0 -8 -4
-15 -9 -15 -4 0 -8 7 -8 15 0 8 -3 15 -7 15 -5 0 -19 17 -33 38 -14 20 -31 41
-38 45 -7 5 -10 12 -8 16 3 4 -4 18 -15 29 -11 12 -17 22 -13 22 4 0 0 8 -8
18 -19 21 -131 252 -131 270 0 6 -4 12 -9 12 -5 0 -7 4 -3 9 3 5 -2 16 -10 24
-8 9 -15 18 -15 20 0 3 -7 21 -15 41 -8 20 -15 38 -15 41 0 3 -6 18 -14 34 -9
16 -12 31 -9 35 4 3 1 6 -5 6 -6 0 -14 10 -17 23 -4 12 -24 65 -45 118 -37 91
-39 98 -30 160 4 35 10 114 12 174 2 93 1 110 -12 110 -8 0 -19 -10 -25 -22
-5 -13 -13 -23 -17 -23 -4 0 -10 -15 -13 -34 l-7 -34 -46 26 c-26 14 -64 40
-85 59 -20 18 -40 33 -45 33 -4 0 -26 18 -50 40 -52 48 -79 53 -75 13 5 -58
25 -117 61 -185 50 -96 56 -105 81 -132 12 -12 19 -25 16 -28 -3 -3 9 -16 27
-29 59 -45 68 -54 71 -74 4 -22 14 -50 28 -80 6 -12 11 -27 13 -35 3 -22 86
-280 98 -310 6 -14 13 -38 14 -53 2 -16 9 -38 16 -50 7 -12 11 -29 10 -39 -2
-9 2 -19 8 -23 6 -3 8 -11 5 -16 -4 -5 -1 -9 5 -9 6 0 9 -4 5 -9 -3 -5 -1 -12
3 -15 5 -3 8 -17 7 -31 -2 -14 1 -27 6 -31 5 -3 7 -10 4 -15 -4 -5 -3 -15 1
-21 5 -7 9 -19 10 -28 3 -17 9 -41 23 -88 5 -18 10 -35 10 -37 1 -3 1 -6 2 -7
2 -6 10 -55 12 -73 1 -11 5 -25 9 -31 4 -5 5 -19 4 -30 -2 -10 -1 -23 3 -29 3
-5 7 -21 8 -35 2 -14 6 -41 8 -60 3 -19 8 -55 11 -80 14 -120 15 -135 6 -121
-6 7 -15 10 -21 7 -6 -4 -11 -2 -11 3 0 6 -3 10 -7 9 -5 -1 -28 9 -53 21 -25
13 -47 23 -50 23 -3 -1 -22 3 -43 9 -20 5 -42 7 -47 4 -6 -3 -10 -2 -10 4 0 9
-26 15 -115 27 -87 12 -322 44 -355 49 -74 11 -86 13 -112 19 -39 8 -78 16
-113 22 -16 3 -35 10 -41 15 -6 5 -14 6 -17 2 -4 -3 -13 0 -22 7 -8 7 -15 9
-15 5 0 -4 -7 -2 -15 5 -8 7 -21 10 -30 7 -8 -4 -17 -2 -21 4 -3 6 -11 8 -16
7 -10 -4 -68 24 -243 115 -22 12 -41 25 -43 29 -2 4 -10 8 -17 8 -8 0 -18 6
-22 13 -4 8 -32 30 -62 51 -30 20 -65 48 -77 61 -13 14 -27 25 -31 25 -5 0
-21 14 -36 31 -15 17 -27 27 -27 23 0 -4 -8 1 -19 12 -10 10 -31 28 -46 39
-16 11 -33 25 -40 31 -6 6 -49 31 -95 55 -47 23 -87 47 -88 51 -2 4 -8 6 -12
3 -5 -3 -24 1 -42 8 -18 8 -39 12 -46 9 -7 -2 -18 0 -25 5 -12 9 -197 8 -247
-1 -56 -10 -129 -56 -123 -77 2 -5 -1 -9 -6 -9 -5 0 -16 -12 -26 -26 -9 -15
-12 -23 -6 -19 8 5 10 -1 6 -18 -5 -18 -1 -30 16 -46 13 -11 19 -21 13 -22 -5
0 1 -4 14 -10 13 -5 21 -13 17 -18 -3 -5 3 -12 12 -15 10 -3 27 -18 38 -33 11
-16 43 -52 72 -80 29 -29 53 -60 53 -68 0 -8 6 -15 14 -15 7 0 33 -21 57 -47
23 -27 89 -96 145 -156 97 -102 135 -159 113 -172 -5 -4 -9 -1 -9 4 0 6 -4 11
-10 11 -5 0 -20 10 -32 23 -13 12 -47 42 -76 66 -87 73 -362 338 -362 350 0 3
-16 17 -35 30 -19 13 -35 27 -35 31 0 3 -20 29 -45 55 -27 30 -41 53 -36 58 6
6 5 17 -2 30 -9 15 -9 21 0 24 7 2 9 11 7 18 -7 17 5 33 68 95 26 25 55 46 65
47 10 1 32 7 48 14 43 18 54 20 120 24 33 2 63 4 66 4 3 1 4 30 3 66 -2 36 0
65 5 65 8 0 6 37 -5 125 -2 22 -5 46 -6 53 -1 6 -6 12 -11 12 -5 0 -7 15 -3
33 14 78 19 128 18 212 -1 105 -2 112 -25 145 -14 20 -15 27 -3 44 22 35 70
137 67 144 -1 1 6 16 14 32 9 17 13 30 9 30 -4 0 -1 6 5 13 6 8 13 24 15 38 3
13 5 24 6 24 2 0 10 35 15 67 2 15 8 35 13 45 22 40 1 147 -35 180 -12 12 -23
27 -23 33 0 14 -27 13 -33 -2 -4 -10 -6 -10 -6 -1 -1 6 4 15 10 18 20 13 -46
37 -111 40 -59 3 -67 1 -105 -28 -54 -42 -65 -54 -65 -65 0 -6 -4 -12 -8 -14
-5 -1 -25 -28 -44 -58 -20 -30 -49 -68 -65 -85 -35 -36 -109 -165 -105 -182 2
-7 -2 -13 -9 -13 -6 0 -9 -7 -5 -15 3 -8 1 -15 -4 -15 -5 0 -7 -7 -4 -15 4 -8
1 -15 -5 -15 -6 0 -8 -7 -5 -15 4 -8 2 -15 -4 -15 -6 0 -9 -8 -7 -17 1 -10 -2
-24 -8 -30 -5 -7 -7 -13 -4 -13 3 0 1 -15 -5 -32 -5 -18 -11 -58 -13 -88 -4
-69 -10 -103 -25 -129 -6 -12 -8 -25 -5 -30 3 -5 1 -11 -3 -13 -9 -3 -55 -98
-88 -180 -11 -27 -22 -48 -26 -48 -3 0 -4 -9 -1 -20 3 -11 2 -28 -2 -37 -9
-21 -9 -121 -1 -218 11 -124 25 -238 30 -243 3 -2 1 -13 -4 -23 -6 -10 -6 -20
-1 -23 7 -5 26 -118 23 -137 0 -3 3 -35 9 -70 5 -35 11 -102 14 -149 3 -47 8
-105 12 -130 3 -25 6 -50 5 -56 -2 -7 3 -25 9 -40 7 -16 12 -32 11 -36 -1 -5
2 -8 8 -8 5 0 7 -6 4 -13 -2 -7 8 -27 23 -43 15 -16 28 -33 28 -37 0 -5 7 -14
15 -20 8 -7 30 -31 48 -54 19 -24 40 -43 47 -43 7 0 15 -4 17 -9 1 -5 17 -17
34 -27 17 -11 62 -39 100 -64 63 -42 107 -65 127 -69 4 0 31 -13 60 -28 28
-15 57 -28 62 -28 6 0 12 -2 15 -6 7 -7 102 -43 120 -45 8 -1 67 -19 130 -40
63 -21 117 -38 120 -39 3 0 11 -4 18 -8 6 -5 12 -6 12 -3 0 3 11 1 25 -4 27
-10 53 -16 150 -35 11 -2 20 -4 20 -5 0 -3 25 -8 60 -13 11 -2 26 -6 33 -11 6
-4 16 -5 21 -1 5 3 13 0 16 -6 4 -5 13 -8 21 -5 7 3 16 1 19 -4 3 -5 13 -9 23
-8 28 0 175 -40 181 -50 3 -5 17 -13 31 -17 14 -4 35 -19 47 -32 13 -13 23
-21 23 -16 0 12 109 -111 110 -124 0 -7 8 -17 18 -22 9 -6 13 -11 9 -11 -4 0
5 -19 20 -42 16 -24 35 -55 43 -71 l13 -27 631 2 c622 3 631 3 634 23 2 11 6
27 9 35 3 8 5 19 4 24 -1 5 1 16 5 25 4 9 8 32 11 51 2 19 6 42 10 50 7 17 9
31 11 78 1 17 6 32 11 32 5 0 7 -18 5 -40 -2 -22 0 -40 6 -40 5 0 7 -7 4 -15
-4 -8 -3 -23 2 -32 4 -10 8 -26 9 -35 2 -10 3 -19 5 -20 1 -2 4 -14 6 -28 7
-46 11 -65 14 -70 2 -3 3 -12 4 -20 1 -13 78 -15 616 -18 338 -1 625 0 636 3
12 2 24 13 26 23 11 41 88 150 158 222 82 84 156 129 232 140 4 1 22 6 40 11
50 15 66 19 143 34 11 2 21 4 23 5 1 2 7 4 12 5 6 1 11 4 13 5 1 1 16 4 32 6
44 6 70 11 70 14 0 2 8 4 60 14 11 2 28 7 37 11 10 4 29 8 43 9 14 0 25 4 25
9 0 4 8 7 17 7 9 0 67 16 127 36 61 19 127 40 146 46 19 6 53 19 75 29 23 9
47 19 55 21 8 2 17 6 20 9 4 5 68 36 142 69 32 15 56 30 107 68 24 17 48 32
53 32 4 0 22 12 39 28 17 15 35 26 40 24 5 -1 9 3 9 9 0 6 23 36 51 67 77 86
109 162 115 267 1 28 5 84 9 125 3 41 7 89 8 105 1 17 5 35 8 40 4 6 5 21 4
35 -1 14 0 29 3 34 3 6 7 30 9 55 2 26 5 60 6 76 1 17 5 35 9 40 3 6 4 27 3
48 -2 20 0 39 4 42 5 2 9 106 9 230 2 186 -1 230 -13 249 -8 12 -12 26 -8 29
3 4 1 7 -6 7 -7 0 -9 5 -6 10 3 6 1 10 -4 10 -6 0 -10 3 -9 8 1 4 -9 32 -24
62 -58 121 -68 152 -72 235 -4 71 -18 134 -43 205 -3 8 -7 22 -8 30 -4 30 -70
166 -92 190 -13 14 -23 28 -23 33 0 4 -15 22 -32 39 -18 18 -42 50 -55 72 -12
23 -27 40 -33 38 -6 -1 -9 2 -5 8 4 6 1 17 -5 25 -15 18 -34 20 -24 3 4 -7 3
-9 -1 -5 -5 4 -10 15 -11 25 -2 9 -8 18 -14 20 -6 2 -17 10 -25 18 -8 9 -16
10 -20 4 -3 -5 -12 -10 -18 -10 -8 0 -8 3 1 9 11 7 10 10 -3 15 -24 9 -27 8
-19 -6 4 -7 -2 -5 -13 5 -14 12 -23 15 -28 7z m-5402 -41 c-8 -8 -13 -7 -18 2
-6 8 -4 10 5 4 10 -6 12 -4 6 11 -6 15 -5 17 5 7 9 -10 10 -16 2 -24z m56 -3
c-3 -3 -11 5 -18 17 -13 21 -12 21 5 5 10 -10 16 -20 13 -22z m45 8 c3 -8 2
-12 -4 -9 -6 3 -10 10 -10 16 0 14 7 11 14 -7z m5316 12 c0 -2 -6 -9 -14 -15
-11 -9 -16 -9 -22 0 -4 8 -3 9 4 5 7 -4 12 -2 12 3 0 6 5 11 10 11 6 0 10 -2
10 -4z m-5382 -37 c-3 -8 -7 -3 -11 10 -4 17 -3 21 5 13 5 -5 8 -16 6 -23z
m5404 24 c-6 -2 -9 -10 -6 -15 4 -7 2 -8 -5 -4 -13 9 -5 26 12 25 9 0 8 -2 -1
-6z m-5482 -6 c0 -2 -10 -12 -22 -23 l-23 -19 19 23 c18 21 26 27 26 19z
m5537 -12 c0 -8 -4 -12 -9 -9 -4 3 -8 9 -8 15 0 5 4 9 8 9 5 0 9 -7 9 -15z
m-5513 -3 c3 -5 -1 -9 -9 -9 -8 0 -12 4 -9 9 3 4 7 8 9 8 2 0 6 -4 9 -8z m110
0 c2 -4 -4 -8 -14 -8 -10 0 -16 4 -14 8 3 4 9 8 14 8 5 0 11 -4 14 -8z m5226
-16 c0 -3 -4 -8 -10 -11 -5 -3 -10 -1 -10 4 0 6 5 11 10 11 6 0 10 -2 10 -4z
m120 0 c0 -3 -4 -8 -10 -11 -5 -3 -10 -1 -10 4 0 6 5 11 10 11 6 0 10 -2 10
-4z"/>
<path d="M6640 2913 c-20 -66 -20 -81 1 -86 17 -5 19 2 19 64 0 38 -1 69 -3
69 -1 0 -9 -21 -17 -47z"/>
</g>
</svg>
